<svg width="1440" height="328" viewBox="0 0 1440 328" fill="none" xmlns="http://www.w3.org/2000/svg">
<g opacity="0.5" filter="url(#filter0_d_2329_2157)">
<path d="M-78.8963 161.501C-75.8411 161.501 -73.3644 158.154 -73.3644 154.026C-73.3644 149.897 -75.8411 146.551 -78.8963 146.551C-81.9515 146.551 -84.4282 149.897 -84.4282 154.026C-84.4282 158.154 -81.9515 161.501 -78.8963 161.501Z" fill="white"/>
<path d="M-175.181 153.877C-175.181 156.932 -172.203 159.408 -168.528 159.408C-164.854 159.408 -161.875 156.932 -161.875 153.877C-161.875 150.821 -164.854 148.345 -168.528 148.345C-172.203 148.345 -175.181 150.821 -175.181 153.877Z" fill="white"/>
<path d="M-146.774 142.125C-146.774 156.938 -131.263 168.947 -112.129 168.947C-92.9951 168.947 -77.484 156.938 -77.484 142.125C-77.484 127.312 -92.9951 115.303 -112.129 115.303C-131.263 115.303 -146.774 127.312 -146.774 142.125Z" fill="white"/>
<path d="M-141.541 168.603C-141.541 180.782 -124.271 190.655 -102.968 190.655C-81.6638 190.655 -64.3938 180.782 -64.3938 168.603C-64.3938 156.424 -81.6638 146.551 -102.968 146.551C-124.271 146.551 -141.541 156.424 -141.541 168.603Z" fill="white"/>
<path d="M-170.098 162.623C-170.098 177.775 -155.907 190.058 -138.402 190.058C-120.896 190.058 -106.705 177.775 -106.705 162.623C-106.705 147.471 -120.896 135.188 -138.402 135.188C-155.907 135.188 -170.098 147.471 -170.098 162.623Z" fill="white"/>
<path d="M-200 168.97C-200 177.307 -182.918 184.065 -161.845 184.065C-140.773 184.065 -123.691 177.307 -123.691 168.97C-123.691 160.634 -140.773 153.876 -161.845 153.876C-182.918 153.876 -200 160.634 -200 168.97Z" fill="white"/>
<path d="M-150.512 170.92C-150.512 180.333 -118.482 187.964 -78.971 187.964C-39.4601 187.964 -7.43008 180.333 -7.43008 170.92C-7.43008 161.507 -39.4601 153.876 -78.971 153.876C-118.482 153.876 -150.512 161.507 -150.512 170.92Z" fill="white"/>
<path d="M1247.24 353.05C1245.32 353.05 1243.77 350.951 1243.77 348.362C1243.77 345.773 1245.32 343.674 1247.24 343.674C1249.15 343.674 1250.71 345.773 1250.71 348.362C1250.71 350.951 1249.15 353.05 1247.24 353.05Z" fill="white"/>
<path d="M1307.62 348.269C1307.62 350.184 1305.75 351.738 1303.45 351.738C1301.14 351.738 1299.28 350.184 1299.28 348.269C1299.28 346.353 1301.14 344.799 1303.45 344.799C1305.75 344.799 1307.62 346.353 1307.62 348.269Z" fill="white"/>
<path d="M1289.81 340.899C1289.81 350.189 1280.08 357.719 1268.08 357.719C1256.08 357.719 1246.35 350.189 1246.35 340.899C1246.35 331.609 1256.08 324.079 1268.08 324.079C1280.08 324.079 1289.81 331.609 1289.81 340.899Z" fill="white"/>
<path d="M1286.52 357.504C1286.52 365.142 1275.69 371.333 1262.33 371.333C1248.97 371.333 1238.14 365.142 1238.14 357.504C1238.14 349.866 1248.97 343.674 1262.33 343.674C1275.69 343.674 1286.52 349.866 1286.52 357.504Z" fill="white"/>
<path d="M1304.43 353.754C1304.43 363.255 1295.53 370.958 1284.55 370.958C1273.58 370.958 1264.68 363.255 1264.68 353.754C1264.68 344.252 1273.58 336.549 1284.55 336.549C1295.53 336.549 1304.43 344.252 1304.43 353.754Z" fill="white"/>
<path d="M1323.18 357.734C1323.18 362.962 1312.47 367.2 1299.26 367.2C1286.04 367.2 1275.33 362.962 1275.33 357.734C1275.33 352.507 1286.04 348.269 1299.26 348.269C1312.47 348.269 1323.18 352.507 1323.18 357.734Z" fill="white"/>
<path d="M1292.15 358.957C1292.15 364.86 1272.06 369.646 1247.28 369.646C1222.51 369.646 1202.42 364.86 1202.42 358.957C1202.42 353.054 1222.51 348.269 1247.28 348.269C1272.06 348.269 1292.15 353.054 1292.15 358.957Z" fill="white"/>
<path d="M211.367 268.159C209.451 268.159 207.898 266.06 207.898 263.471C207.898 260.882 209.451 258.783 211.367 258.783C213.283 258.783 214.836 260.882 214.836 263.471C214.836 266.06 213.283 268.159 211.367 268.159Z" fill="white"/>
<path d="M271.749 263.377C271.749 265.293 269.881 266.846 267.577 266.846C265.273 266.846 263.405 265.293 263.405 263.377C263.405 261.461 265.273 259.908 267.577 259.908C269.881 259.908 271.749 261.461 271.749 263.377Z" fill="white"/>
<path d="M253.934 256.008C253.934 265.297 244.207 272.828 232.208 272.828C220.208 272.828 210.481 265.297 210.481 256.008C210.481 246.718 220.208 239.187 232.208 239.187C244.207 239.187 253.934 246.718 253.934 256.008Z" fill="white"/>
<path d="M250.653 272.612C250.653 280.25 239.823 286.442 226.463 286.442C213.103 286.442 202.272 280.25 202.272 272.612C202.272 264.975 213.103 258.783 226.463 258.783C239.823 258.783 250.653 264.975 250.653 272.612Z" fill="white"/>
<path d="M268.561 268.862C268.561 278.364 259.662 286.067 248.684 286.067C237.706 286.067 228.807 278.364 228.807 268.862C228.807 259.36 237.706 251.657 248.684 251.657C259.662 251.657 268.561 259.36 268.561 268.862Z" fill="white"/>
<path d="M287.314 272.843C287.314 278.071 276.601 282.309 263.386 282.309C250.171 282.309 239.459 278.071 239.459 272.843C239.459 267.615 250.171 263.377 263.386 263.377C276.601 263.377 287.314 267.615 287.314 272.843Z" fill="white"/>
<path d="M256.278 274.066C256.278 279.969 236.192 284.754 211.414 284.754C186.636 284.754 166.549 279.969 166.549 274.066C166.549 268.163 186.636 263.377 211.414 263.377C236.192 263.377 256.278 268.163 256.278 274.066Z" fill="white"/>
<path d="M1583.05 82.9716C1581.14 82.9716 1579.58 80.8728 1579.58 78.2837C1579.58 75.6946 1581.14 73.5957 1583.05 73.5957C1584.97 73.5957 1586.52 75.6946 1586.52 78.2837C1586.52 80.8728 1584.97 82.9716 1583.05 82.9716Z" fill="white"/>
<path d="M1643.44 78.1899C1643.44 80.1058 1641.57 81.659 1639.26 81.659C1636.96 81.659 1635.09 80.1058 1635.09 78.1899C1635.09 76.274 1636.96 74.7208 1639.26 74.7208C1641.57 74.7208 1643.44 76.274 1643.44 78.1899Z" fill="white"/>
<path d="M1625.62 70.8204C1625.62 80.1101 1615.89 87.6408 1603.89 87.6408C1591.9 87.6408 1582.17 80.1101 1582.17 70.8204C1582.17 61.5308 1591.9 54 1603.89 54C1615.89 54 1625.62 61.5308 1625.62 70.8204Z" fill="white"/>
<path d="M1622.34 87.4252C1622.34 95.063 1611.51 101.255 1598.15 101.255C1584.79 101.255 1573.96 95.063 1573.96 87.4252C1573.96 79.7874 1584.79 73.5957 1598.15 73.5957C1611.51 73.5957 1622.34 79.7874 1622.34 87.4252Z" fill="white"/>
<path d="M1640.25 83.6749C1640.25 93.1769 1631.35 100.88 1620.37 100.88C1609.39 100.88 1600.49 93.1769 1600.49 83.6749C1600.49 74.1729 1609.39 66.4701 1620.37 66.4701C1631.35 66.4701 1640.25 74.1729 1640.25 83.6749Z" fill="white"/>
<path d="M1659 87.6556C1659 92.8834 1648.29 97.1214 1635.07 97.1214C1621.86 97.1214 1611.15 92.8834 1611.15 87.6556C1611.15 82.4278 1621.86 78.1899 1635.07 78.1899C1648.29 78.1899 1659 82.4278 1659 87.6556Z" fill="white"/>
<path d="M1627.96 88.8784C1627.96 94.7816 1607.88 99.567 1583.1 99.567C1558.32 99.567 1538.24 94.7816 1538.24 88.8784C1538.24 82.9753 1558.32 78.1899 1583.1 78.1899C1607.88 78.1899 1627.96 82.9753 1627.96 88.8784Z" fill="white"/>
<path d="M1379.9 160.27C1375.91 160.27 1372.68 155.902 1372.68 150.514C1372.68 145.126 1375.91 140.758 1379.9 140.758C1383.89 140.758 1387.12 145.126 1387.12 150.514C1387.12 155.902 1383.89 160.27 1379.9 160.27Z" fill="white"/>
<path d="M1505.56 150.318C1505.56 154.306 1501.67 157.538 1496.88 157.538C1492.08 157.538 1488.2 154.306 1488.2 150.318C1488.2 146.331 1492.08 143.099 1496.88 143.099C1501.67 143.099 1505.56 146.331 1505.56 150.318Z" fill="white"/>
<path d="M1468.49 134.982C1468.49 154.315 1448.24 169.987 1423.27 169.987C1398.3 169.987 1378.06 154.315 1378.06 134.982C1378.06 115.65 1398.3 99.9775 1423.27 99.9775C1448.24 99.9775 1468.49 115.65 1468.49 134.982Z" fill="white"/>
<path d="M1461.66 169.538C1461.66 185.433 1439.12 198.318 1411.32 198.318C1383.51 198.318 1360.97 185.433 1360.97 169.538C1360.97 153.643 1383.51 140.758 1411.32 140.758C1439.12 140.758 1461.66 153.643 1461.66 169.538Z" fill="white"/>
<path d="M1498.93 161.733C1498.93 181.508 1480.41 197.538 1457.56 197.538C1434.71 197.538 1416.19 181.508 1416.19 161.733C1416.19 141.959 1434.71 125.929 1457.56 125.929C1480.41 125.929 1498.93 141.959 1498.93 161.733Z" fill="white"/>
<path d="M1537.95 170.018C1537.95 180.897 1515.66 189.716 1488.16 189.716C1460.66 189.716 1438.36 180.897 1438.36 170.018C1438.36 159.138 1460.66 150.319 1488.16 150.319C1515.66 150.319 1537.95 159.138 1537.95 170.018Z" fill="white"/>
<path d="M1473.37 172.562C1473.37 184.847 1431.56 194.806 1380 194.806C1328.43 194.806 1286.63 184.847 1286.63 172.562C1286.63 160.277 1328.43 150.319 1380 150.319C1431.56 150.319 1473.37 160.277 1473.37 172.562Z" fill="white"/>
<path d="M539.166 356.952C543.153 356.952 546.385 352.584 546.385 347.195C546.385 341.807 543.153 337.439 539.166 337.439C535.178 337.439 531.946 341.807 531.946 347.195C531.946 352.584 535.178 356.952 539.166 356.952Z" fill="white"/>
<path d="M413.506 347C413.506 350.987 417.393 354.22 422.189 354.22C426.984 354.22 430.872 350.987 430.872 347C430.872 343.013 426.984 339.781 422.189 339.781C417.393 339.781 413.506 343.013 413.506 347Z" fill="white"/>
<path d="M450.579 331.664C450.579 350.996 470.822 366.668 495.794 366.668C520.765 366.668 541.009 350.996 541.009 331.664C541.009 312.331 520.765 296.659 495.794 296.659C470.822 296.659 450.579 312.331 450.579 331.664Z" fill="white"/>
<path d="M457.409 366.22C457.409 382.115 479.948 395 507.751 395C535.554 395 558.093 382.115 558.093 366.22C558.093 350.325 535.554 337.439 507.751 337.439C479.948 337.439 457.409 350.325 457.409 366.22Z" fill="white"/>
<path d="M420.14 358.415C420.14 378.189 438.66 394.22 461.506 394.22C484.352 394.22 502.873 378.189 502.873 358.415C502.873 338.641 484.352 322.61 461.506 322.61C438.66 322.61 420.14 338.641 420.14 358.415Z" fill="white"/>
<path d="M381.115 366.699C381.115 377.579 403.409 386.398 430.91 386.398C458.411 386.398 480.705 377.579 480.705 366.699C480.705 355.82 458.411 347 430.91 347C403.409 347 381.115 355.82 381.115 366.699Z" fill="white"/>
<path d="M445.701 369.244C445.701 381.529 487.503 391.488 539.068 391.488C590.633 391.488 632.435 381.529 632.435 369.244C632.435 356.959 590.633 347 539.068 347C487.503 347 445.701 356.959 445.701 369.244Z" fill="white"/>
</g>
<defs>
<filter id="filter0_d_2329_2157" x="-254" y="0" width="1967" height="449" filterUnits="userSpaceOnUse" color-interpolation-filters="sRGB">
<feFlood flood-opacity="0" result="BackgroundImageFix"/>
<feColorMatrix in="SourceAlpha" type="matrix" values="0 0 0 0 0 0 0 0 0 0 0 0 0 0 0 0 0 0 127 0" result="hardAlpha"/>
<feOffset/>
<feGaussianBlur stdDeviation="27"/>
<feComposite in2="hardAlpha" operator="out"/>
<feColorMatrix type="matrix" values="0 0 0 0 0 0 0 0 0 0 0 0 0 0 0 0 0 0 0.15 0"/>
<feBlend mode="normal" in2="BackgroundImageFix" result="effect1_dropShadow_2329_2157"/>
<feBlend mode="normal" in="SourceGraphic" in2="effect1_dropShadow_2329_2157" result="shape"/>
</filter>
</defs>
</svg>
