<svg width="1440" height="375" viewBox="0 0 1440 375" fill="none" xmlns="http://www.w3.org/2000/svg">
<g opacity="0.5" filter="url(#filter0_d_2329_2156)">
<path d="M78.8215 138.173C81.2136 138.173 83.1528 135.552 83.1528 132.319C83.1528 129.087 81.2136 126.466 78.8215 126.466C76.4293 126.466 74.4901 129.087 74.4901 132.319C74.4901 135.552 76.4293 138.173 78.8215 138.173Z" fill="white"/>
<path d="M3.43236 132.202C3.43236 134.595 5.76466 136.534 8.64169 136.534C11.5187 136.534 13.851 134.595 13.851 132.202C13.851 129.81 11.5187 127.871 8.64169 127.871C5.76466 127.871 3.43236 129.81 3.43236 132.202Z" fill="white"/>
<path d="M25.6745 123.001C25.6745 134.6 37.8194 144.002 52.8009 144.002C67.7824 144.002 79.9273 134.6 79.9273 123.001C79.9273 111.403 67.7824 102 52.8009 102C37.8194 102 25.6745 111.403 25.6745 123.001Z" fill="white"/>
<path d="M29.7718 143.733C29.7718 153.269 43.2939 161 59.9743 161C76.6546 161 90.1767 153.269 90.1767 143.733C90.1767 134.197 76.6546 126.466 59.9743 126.466C43.2939 126.466 29.7718 134.197 29.7718 143.733Z" fill="white"/>
<path d="M7.41272 139.051C7.41272 150.914 18.5239 160.532 32.2302 160.532C45.9365 160.532 57.0477 150.914 57.0477 139.051C57.0477 127.187 45.9365 117.57 32.2302 117.57C18.5239 117.57 7.41272 127.187 7.41272 139.051Z" fill="white"/>
<path d="M-16 144.021C-16 150.548 -2.62483 155.839 13.8743 155.839C30.3734 155.839 43.7486 150.548 43.7486 144.021C43.7486 137.494 30.3734 132.202 13.8743 132.202C-2.62483 132.202 -16 137.494 -16 144.021Z" fill="white"/>
<path d="M22.7481 145.548C22.7481 152.918 47.8268 158.893 78.763 158.893C109.699 158.893 134.778 152.918 134.778 145.548C134.778 138.177 109.699 132.202 78.763 132.202C47.8268 132.202 22.7481 138.177 22.7481 145.548Z" fill="white"/>
<path d="M1245.09 217.685C1243.59 217.685 1242.38 216.041 1242.38 214.014C1242.38 211.987 1243.59 210.343 1245.09 210.343C1246.59 210.343 1247.81 211.987 1247.81 214.014C1247.81 216.041 1246.59 217.685 1245.09 217.685Z" fill="white"/>
<path d="M1292.37 213.94C1292.37 215.441 1290.91 216.657 1289.1 216.657C1287.3 216.657 1285.84 215.441 1285.84 213.94C1285.84 212.44 1287.3 211.224 1289.1 211.224C1290.91 211.224 1292.37 212.44 1292.37 213.94Z" fill="white"/>
<path d="M1278.42 208.17C1278.42 215.444 1270.8 221.34 1261.41 221.34C1252.01 221.34 1244.4 215.444 1244.4 208.17C1244.4 200.897 1252.01 195 1261.41 195C1270.8 195 1278.42 200.897 1278.42 208.17Z" fill="white"/>
<path d="M1275.85 221.172C1275.85 227.152 1267.37 232 1256.91 232C1246.45 232 1237.97 227.152 1237.97 221.172C1237.97 215.191 1246.45 210.343 1256.91 210.343C1267.37 210.343 1275.85 215.191 1275.85 221.172Z" fill="white"/>
<path d="M1289.87 218.235C1289.87 225.675 1282.9 231.706 1274.31 231.706C1265.71 231.706 1258.75 225.675 1258.75 218.235C1258.75 210.795 1265.71 204.764 1274.31 204.764C1282.9 204.764 1289.87 210.795 1289.87 218.235Z" fill="white"/>
<path d="M1304.56 221.352C1304.56 225.445 1296.17 228.764 1285.82 228.764C1275.47 228.764 1267.09 225.445 1267.09 221.352C1267.09 217.259 1275.47 213.94 1285.82 213.94C1296.17 213.94 1304.56 217.259 1304.56 221.352Z" fill="white"/>
<path d="M1280.26 222.31C1280.26 226.932 1264.53 230.679 1245.13 230.679C1225.73 230.679 1210 226.932 1210 222.31C1210 217.687 1225.73 213.94 1245.13 213.94C1264.53 213.94 1280.26 217.687 1280.26 222.31Z" fill="white"/>
<path d="M306.091 221.685C304.591 221.685 303.375 220.041 303.375 218.014C303.375 215.987 304.591 214.343 306.091 214.343C307.591 214.343 308.808 215.987 308.808 218.014C308.808 220.041 307.591 221.685 306.091 221.685Z" fill="white"/>
<path d="M353.369 217.94C353.369 219.441 351.907 220.657 350.102 220.657C348.298 220.657 346.835 219.441 346.835 217.94C346.835 216.44 348.298 215.224 350.102 215.224C351.907 215.224 353.369 216.44 353.369 217.94Z" fill="white"/>
<path d="M339.421 212.17C339.421 219.444 331.804 225.34 322.409 225.34C313.014 225.34 305.398 219.444 305.398 212.17C305.398 204.897 313.014 199 322.409 199C331.804 199 339.421 204.897 339.421 212.17Z" fill="white"/>
<path d="M336.851 225.172C336.851 231.152 328.371 236 317.911 236C307.45 236 298.97 231.152 298.97 225.172C298.97 219.191 307.45 214.343 317.911 214.343C328.371 214.343 336.851 219.191 336.851 225.172Z" fill="white"/>
<path d="M350.873 222.235C350.873 229.675 343.905 235.706 335.309 235.706C326.714 235.706 319.746 229.675 319.746 222.235C319.746 214.795 326.714 208.764 335.309 208.764C343.905 208.764 350.873 214.795 350.873 222.235Z" fill="white"/>
<path d="M365.556 225.352C365.556 229.445 357.168 232.764 346.821 232.764C336.474 232.764 328.086 229.445 328.086 225.352C328.086 221.259 336.474 217.94 346.821 217.94C357.168 217.94 365.556 221.259 365.556 225.352Z" fill="white"/>
<path d="M341.256 226.31C341.256 230.932 325.528 234.679 306.128 234.679C286.727 234.679 271 230.932 271 226.31C271 221.687 286.727 217.94 306.128 217.94C325.528 217.94 341.256 221.687 341.256 226.31Z" fill="white"/>
<path d="M1551.09 76.6845C1549.59 76.6845 1548.38 75.0411 1548.38 73.0139C1548.38 70.9867 1549.59 69.3433 1551.09 69.3433C1552.59 69.3433 1553.81 70.9867 1553.81 73.0139C1553.81 75.0411 1552.59 76.6845 1551.09 76.6845Z" fill="white"/>
<path d="M1598.37 72.9405C1598.37 74.4406 1596.91 75.6568 1595.1 75.6568C1593.3 75.6568 1591.84 74.4406 1591.84 72.9405C1591.84 71.4403 1593.3 70.2242 1595.1 70.2242C1596.91 70.2242 1598.37 71.4403 1598.37 72.9405Z" fill="white"/>
<path d="M1584.42 67.1702C1584.42 74.444 1576.8 80.3405 1567.41 80.3405C1558.01 80.3405 1550.4 74.444 1550.4 67.1702C1550.4 59.8965 1558.01 54 1567.41 54C1576.8 54 1584.42 59.8965 1584.42 67.1702Z" fill="white"/>
<path d="M1581.85 80.1716C1581.85 86.152 1573.37 91 1562.91 91C1552.45 91 1543.97 86.152 1543.97 80.1716C1543.97 74.1913 1552.45 69.3433 1562.91 69.3433C1573.37 69.3433 1581.85 74.1913 1581.85 80.1716Z" fill="white"/>
<path d="M1595.87 77.2352C1595.87 84.6751 1588.9 90.7064 1580.31 90.7064C1571.71 90.7064 1564.75 84.6751 1564.75 77.2352C1564.75 69.7952 1571.71 63.764 1580.31 63.764C1588.9 63.764 1595.87 69.7952 1595.87 77.2352Z" fill="white"/>
<path d="M1610.56 80.352C1610.56 84.4454 1602.17 87.7636 1591.82 87.7636C1581.47 87.7636 1573.09 84.4454 1573.09 80.352C1573.09 76.2587 1581.47 72.9405 1591.82 72.9405C1602.17 72.9405 1610.56 76.2587 1610.56 80.352Z" fill="white"/>
<path d="M1586.26 81.3095C1586.26 85.9316 1570.53 89.6786 1551.13 89.6786C1531.73 89.6786 1516 85.9316 1516 81.3095C1516 76.6874 1531.73 72.9405 1551.13 72.9405C1570.53 72.9405 1586.26 76.6874 1586.26 81.3095Z" fill="white"/>
<path d="M1392.03 137.208C1388.91 137.208 1386.38 133.788 1386.38 129.569C1386.38 125.351 1388.91 121.931 1392.03 121.931C1395.15 121.931 1397.68 125.351 1397.68 129.569C1397.68 133.788 1395.15 137.208 1392.03 137.208Z" fill="white"/>
<path d="M1490.42 129.416C1490.42 132.538 1487.37 135.069 1483.62 135.069C1479.86 135.069 1476.82 132.538 1476.82 129.416C1476.82 126.295 1479.86 123.764 1483.62 123.764C1487.37 123.764 1490.42 126.295 1490.42 129.416Z" fill="white"/>
<path d="M1461.39 117.408C1461.39 132.546 1445.54 144.817 1425.99 144.817C1406.43 144.817 1390.58 132.546 1390.58 117.408C1390.58 102.271 1406.43 90 1425.99 90C1445.54 90 1461.39 102.271 1461.39 117.408Z" fill="white"/>
<path d="M1456.04 144.465C1456.04 156.911 1438.39 167 1416.62 167C1394.86 167 1377.21 156.911 1377.21 144.465C1377.21 132.02 1394.86 121.931 1416.62 121.931C1438.39 121.931 1456.04 132.02 1456.04 144.465Z" fill="white"/>
<path d="M1485.22 138.354C1485.22 153.837 1470.72 166.389 1452.83 166.389C1434.95 166.389 1420.44 153.837 1420.44 138.354C1420.44 122.871 1434.95 110.319 1452.83 110.319C1470.72 110.319 1485.22 122.871 1485.22 138.354Z" fill="white"/>
<path d="M1515.78 144.841C1515.78 153.359 1498.32 160.265 1476.79 160.265C1455.26 160.265 1437.8 153.359 1437.8 144.841C1437.8 136.322 1455.26 129.417 1476.79 129.417C1498.32 129.417 1515.78 136.322 1515.78 144.841Z" fill="white"/>
<path d="M1465.21 146.833C1465.21 156.452 1432.48 164.25 1392.1 164.25C1351.73 164.25 1319 156.452 1319 146.833C1319 137.214 1351.73 129.417 1392.1 129.417C1432.48 129.417 1465.21 137.214 1465.21 146.833Z" fill="white"/>
<path d="M562.75 291.208C565.872 291.208 568.403 287.788 568.403 283.569C568.403 279.351 565.872 275.931 562.75 275.931C559.628 275.931 557.097 279.351 557.097 283.569C557.097 287.788 559.628 291.208 562.75 291.208Z" fill="white"/>
<path d="M464.361 283.416C464.361 286.538 467.405 289.069 471.16 289.069C474.915 289.069 477.958 286.538 477.958 283.416C477.958 280.295 474.915 277.764 471.16 277.764C467.405 277.764 464.361 280.295 464.361 283.416Z" fill="white"/>
<path d="M493.389 271.408C493.389 286.546 509.239 298.817 528.791 298.817C548.343 298.817 564.193 286.546 564.193 271.408C564.193 256.271 548.343 244 528.791 244C509.239 244 493.389 256.271 493.389 271.408Z" fill="white"/>
<path d="M498.737 298.465C498.737 310.911 516.384 321 538.153 321C559.922 321 577.57 310.911 577.57 298.465C577.57 286.02 559.922 275.931 538.153 275.931C516.384 275.931 498.737 286.02 498.737 298.465Z" fill="white"/>
<path d="M469.556 292.354C469.556 307.837 484.057 320.389 501.945 320.389C519.833 320.389 534.334 307.837 534.334 292.354C534.334 276.871 519.833 264.32 501.945 264.32C484.057 264.32 469.556 276.871 469.556 292.354Z" fill="white"/>
<path d="M439 298.841C439 307.359 456.456 314.265 477.988 314.265C499.521 314.265 516.977 307.359 516.977 298.841C516.977 290.322 499.521 283.417 477.988 283.417C456.456 283.417 439 290.322 439 298.841Z" fill="white"/>
<path d="M489.57 300.833C489.57 310.452 522.3 318.25 562.674 318.25C603.048 318.25 635.778 310.452 635.778 300.833C635.778 291.214 603.048 283.417 562.674 283.417C522.3 283.417 489.57 291.214 489.57 300.833Z" fill="white"/>
</g>
<defs>
<filter id="filter0_d_2329_2156" x="-70" y="0" width="1734.55" height="375" filterUnits="userSpaceOnUse" color-interpolation-filters="sRGB">
<feFlood flood-opacity="0" result="BackgroundImageFix"/>
<feColorMatrix in="SourceAlpha" type="matrix" values="0 0 0 0 0 0 0 0 0 0 0 0 0 0 0 0 0 0 127 0" result="hardAlpha"/>
<feOffset/>
<feGaussianBlur stdDeviation="27"/>
<feComposite in2="hardAlpha" operator="out"/>
<feColorMatrix type="matrix" values="0 0 0 0 0 0 0 0 0 0 0 0 0 0 0 0 0 0 0.15 0"/>
<feBlend mode="normal" in2="BackgroundImageFix" result="effect1_dropShadow_2329_2156"/>
<feBlend mode="normal" in="SourceGraphic" in2="effect1_dropShadow_2329_2156" result="shape"/>
</filter>
</defs>
</svg>
