<svg width="1440" height="273" viewBox="0 0 1440 273" fill="none" xmlns="http://www.w3.org/2000/svg">
<g opacity="0.5" filter="url(#filter0_d_2329_2740)">
<path d="M78.8215 36.1726C81.2136 36.1726 83.1528 33.552 83.1528 30.3194C83.1528 27.0868 81.2136 24.4662 78.8215 24.4662C76.4293 24.4662 74.4901 27.0868 74.4901 30.3194C74.4901 33.552 76.4293 36.1726 78.8215 36.1726Z" fill="white"/>
<path d="M3.43236 30.2024C3.43236 32.5946 5.76466 34.5338 8.64169 34.5338C11.5187 34.5338 13.851 32.5946 13.851 30.2024C13.851 27.8103 11.5187 25.8711 8.64169 25.8711C5.76466 25.8711 3.43236 27.8103 3.43236 30.2024Z" fill="white"/>
<path d="M25.6745 21.0012C25.6745 32.5999 37.8194 42.0024 52.8009 42.0024C67.7824 42.0024 79.9273 32.5999 79.9273 21.0012C79.9273 9.40257 67.7824 0 52.8009 0C37.8194 0 25.6745 9.40257 25.6745 21.0012Z" fill="white"/>
<path d="M29.7718 41.7331C29.7718 51.2694 43.2939 59 59.9743 59C76.6546 59 90.1767 51.2694 90.1767 41.7331C90.1767 32.1969 76.6546 24.4662 59.9743 24.4662C43.2939 24.4662 29.7718 32.1969 29.7718 41.7331Z" fill="white"/>
<path d="M7.41272 37.0507C7.41272 48.9144 18.5239 58.5319 32.2302 58.5319C45.9365 58.5319 57.0477 48.9144 57.0477 37.0507C57.0477 25.187 45.9365 15.5695 32.2302 15.5695C18.5239 15.5695 7.41272 25.187 7.41272 37.0507Z" fill="white"/>
<path d="M-16 42.0209C-16 48.548 -2.62483 53.8394 13.8743 53.8394C30.3734 53.8394 43.7486 48.548 43.7486 42.0209C43.7486 35.4937 30.3734 30.2024 13.8743 30.2024C-2.62483 30.2024 -16 35.4937 -16 42.0209Z" fill="white"/>
<path d="M22.7481 43.5476C22.7481 50.918 47.8268 56.8929 78.763 56.8929C109.699 56.8929 134.778 50.918 134.778 43.5476C134.778 36.1772 109.699 30.2024 78.763 30.2024C47.8268 30.2024 22.7481 36.1772 22.7481 43.5476Z" fill="white"/>
<path d="M1245.09 115.685C1243.59 115.685 1242.38 114.041 1242.38 112.014C1242.38 109.987 1243.59 108.343 1245.09 108.343C1246.59 108.343 1247.81 109.987 1247.81 112.014C1247.81 114.041 1246.59 115.685 1245.09 115.685Z" fill="white"/>
<path d="M1292.37 111.94C1292.37 113.441 1290.91 114.657 1289.1 114.657C1287.3 114.657 1285.84 113.441 1285.84 111.94C1285.84 110.44 1287.3 109.224 1289.1 109.224C1290.91 109.224 1292.37 110.44 1292.37 111.94Z" fill="white"/>
<path d="M1278.42 106.17C1278.42 113.444 1270.8 119.34 1261.41 119.34C1252.01 119.34 1244.4 113.444 1244.4 106.17C1244.4 98.8965 1252.01 93 1261.41 93C1270.8 93 1278.42 98.8965 1278.42 106.17Z" fill="white"/>
<path d="M1275.85 119.172C1275.85 125.152 1267.37 130 1256.91 130C1246.45 130 1237.97 125.152 1237.97 119.172C1237.97 113.191 1246.45 108.343 1256.91 108.343C1267.37 108.343 1275.85 113.191 1275.85 119.172Z" fill="white"/>
<path d="M1289.87 116.235C1289.87 123.675 1282.9 129.706 1274.31 129.706C1265.71 129.706 1258.75 123.675 1258.75 116.235C1258.75 108.795 1265.71 102.764 1274.31 102.764C1282.9 102.764 1289.87 108.795 1289.87 116.235Z" fill="white"/>
<path d="M1304.56 119.352C1304.56 123.445 1296.17 126.764 1285.82 126.764C1275.47 126.764 1267.09 123.445 1267.09 119.352C1267.09 115.259 1275.47 111.94 1285.82 111.94C1296.17 111.94 1304.56 115.259 1304.56 119.352Z" fill="white"/>
<path d="M1280.26 120.31C1280.26 124.932 1264.53 128.679 1245.13 128.679C1225.73 128.679 1210 124.932 1210 120.31C1210 115.687 1225.73 111.94 1245.13 111.94C1264.53 111.94 1280.26 115.687 1280.26 120.31Z" fill="white"/>
<path d="M306.091 119.685C304.591 119.685 303.375 118.041 303.375 116.014C303.375 113.987 304.591 112.343 306.091 112.343C307.591 112.343 308.808 113.987 308.808 116.014C308.808 118.041 307.591 119.685 306.091 119.685Z" fill="white"/>
<path d="M353.369 115.94C353.369 117.441 351.907 118.657 350.102 118.657C348.298 118.657 346.835 117.441 346.835 115.94C346.835 114.44 348.298 113.224 350.102 113.224C351.907 113.224 353.369 114.44 353.369 115.94Z" fill="white"/>
<path d="M339.421 110.17C339.421 117.444 331.804 123.34 322.409 123.34C313.014 123.34 305.398 117.444 305.398 110.17C305.398 102.897 313.014 97 322.409 97C331.804 97 339.421 102.897 339.421 110.17Z" fill="white"/>
<path d="M336.851 123.172C336.851 129.152 328.371 134 317.911 134C307.45 134 298.97 129.152 298.97 123.172C298.97 117.191 307.45 112.343 317.911 112.343C328.371 112.343 336.851 117.191 336.851 123.172Z" fill="white"/>
<path d="M350.873 120.235C350.873 127.675 343.905 133.706 335.309 133.706C326.714 133.706 319.746 127.675 319.746 120.235C319.746 112.795 326.714 106.764 335.309 106.764C343.905 106.764 350.873 112.795 350.873 120.235Z" fill="white"/>
<path d="M365.556 123.352C365.556 127.445 357.168 130.764 346.821 130.764C336.474 130.764 328.086 127.445 328.086 123.352C328.086 119.259 336.474 115.94 346.821 115.94C357.168 115.94 365.556 119.259 365.556 123.352Z" fill="white"/>
<path d="M341.256 124.31C341.256 128.932 325.528 132.679 306.128 132.679C286.727 132.679 271 128.932 271 124.31C271 119.687 286.727 115.94 306.128 115.94C325.528 115.94 341.256 119.687 341.256 124.31Z" fill="white"/>
<path d="M1551.09 -25.3155C1549.59 -25.3155 1548.38 -26.9589 1548.38 -28.9861C1548.38 -31.0133 1549.59 -32.6567 1551.09 -32.6567C1552.59 -32.6567 1553.81 -31.0133 1553.81 -28.9861C1553.81 -26.9589 1552.59 -25.3155 1551.09 -25.3155Z" fill="white"/>
<path d="M1598.37 -29.0595C1598.37 -27.5594 1596.91 -26.3432 1595.1 -26.3432C1593.3 -26.3432 1591.84 -27.5594 1591.84 -29.0595C1591.84 -30.5597 1593.3 -31.7758 1595.1 -31.7758C1596.91 -31.7758 1598.37 -30.5597 1598.37 -29.0595Z" fill="white"/>
<path d="M1584.42 -34.8298C1584.42 -27.556 1576.8 -21.6595 1567.41 -21.6595C1558.01 -21.6595 1550.4 -27.556 1550.4 -34.8298C1550.4 -42.1035 1558.01 -48 1567.41 -48C1576.8 -48 1584.42 -42.1035 1584.42 -34.8298Z" fill="white"/>
<path d="M1581.85 -21.8284C1581.85 -15.848 1573.37 -11 1562.91 -11C1552.45 -11 1543.97 -15.848 1543.97 -21.8284C1543.97 -27.8087 1552.45 -32.6567 1562.91 -32.6567C1573.37 -32.6567 1581.85 -27.8087 1581.85 -21.8284Z" fill="white"/>
<path d="M1595.87 -24.7648C1595.87 -17.3249 1588.9 -11.2936 1580.31 -11.2936C1571.71 -11.2936 1564.75 -17.3249 1564.75 -24.7648C1564.75 -32.2048 1571.71 -38.236 1580.31 -38.236C1588.9 -38.236 1595.87 -32.2048 1595.87 -24.7648Z" fill="white"/>
<path d="M1610.56 -21.648C1610.56 -17.5546 1602.17 -14.2364 1591.82 -14.2364C1581.47 -14.2364 1573.09 -17.5546 1573.09 -21.648C1573.09 -25.7413 1581.47 -29.0595 1591.82 -29.0595C1602.17 -29.0595 1610.56 -25.7413 1610.56 -21.648Z" fill="white"/>
<path d="M1586.26 -20.6905C1586.26 -16.0684 1570.53 -12.3214 1551.13 -12.3214C1531.73 -12.3214 1516 -16.0684 1516 -20.6905C1516 -25.3126 1531.73 -29.0595 1551.13 -29.0595C1570.53 -29.0595 1586.26 -25.3126 1586.26 -20.6905Z" fill="white"/>
<path d="M1392.03 35.2083C1388.91 35.2083 1386.38 31.7883 1386.38 27.5695C1386.38 23.3506 1388.91 19.9306 1392.03 19.9306C1395.15 19.9306 1397.68 23.3506 1397.68 27.5695C1397.68 31.7883 1395.15 35.2083 1392.03 35.2083Z" fill="white"/>
<path d="M1490.42 27.4165C1490.42 30.5384 1487.37 33.0693 1483.62 33.0693C1479.86 33.0693 1476.82 30.5384 1476.82 27.4165C1476.82 24.2945 1479.86 21.7637 1483.62 21.7637C1487.37 21.7637 1490.42 24.2945 1490.42 27.4165Z" fill="white"/>
<path d="M1461.39 15.4083C1461.39 30.5455 1445.54 42.8167 1425.99 42.8167C1406.43 42.8167 1390.58 30.5455 1390.58 15.4083C1390.58 0.27113 1406.43 -12 1425.99 -12C1445.54 -12 1461.39 0.27113 1461.39 15.4083Z" fill="white"/>
<path d="M1456.04 42.4653C1456.04 54.9109 1438.39 65 1416.62 65C1394.86 65 1377.21 54.9109 1377.21 42.4653C1377.21 30.0197 1394.86 19.9306 1416.62 19.9306C1438.39 19.9306 1456.04 30.0197 1456.04 42.4653Z" fill="white"/>
<path d="M1485.22 36.3542C1485.22 51.8374 1470.72 64.3889 1452.83 64.3889C1434.95 64.3889 1420.44 51.8374 1420.44 36.3542C1420.44 20.8711 1434.95 8.3195 1452.83 8.3195C1470.72 8.3195 1485.22 20.8711 1485.22 36.3542Z" fill="white"/>
<path d="M1515.78 42.8407C1515.78 51.3592 1498.32 58.2648 1476.79 58.2648C1455.26 58.2648 1437.8 51.3592 1437.8 42.8407C1437.8 34.3222 1455.26 27.4166 1476.79 27.4166C1498.32 27.4166 1515.78 34.3222 1515.78 42.8407Z" fill="white"/>
<path d="M1465.21 44.8332C1465.21 54.4522 1432.48 62.2499 1392.1 62.2499C1351.73 62.2499 1319 54.4522 1319 44.8332C1319 35.2143 1351.73 27.4166 1392.1 27.4166C1432.48 27.4166 1465.21 35.2143 1465.21 44.8332Z" fill="white"/>
<path d="M562.75 189.208C565.872 189.208 568.403 185.788 568.403 181.569C568.403 177.351 565.872 173.931 562.75 173.931C559.628 173.931 557.097 177.351 557.097 181.569C557.097 185.788 559.628 189.208 562.75 189.208Z" fill="white"/>
<path d="M464.361 181.416C464.361 184.538 467.405 187.069 471.16 187.069C474.915 187.069 477.958 184.538 477.958 181.416C477.958 178.295 474.915 175.764 471.16 175.764C467.405 175.764 464.361 178.295 464.361 181.416Z" fill="white"/>
<path d="M493.389 169.408C493.389 184.546 509.239 196.817 528.791 196.817C548.343 196.817 564.193 184.546 564.193 169.408C564.193 154.271 548.343 142 528.791 142C509.239 142 493.389 154.271 493.389 169.408Z" fill="white"/>
<path d="M498.737 196.465C498.737 208.911 516.384 219 538.153 219C559.922 219 577.57 208.911 577.57 196.465C577.57 184.02 559.922 173.931 538.153 173.931C516.384 173.931 498.737 184.02 498.737 196.465Z" fill="white"/>
<path d="M469.556 190.354C469.556 205.837 484.057 218.389 501.945 218.389C519.833 218.389 534.334 205.837 534.334 190.354C534.334 174.871 519.833 162.32 501.945 162.32C484.057 162.32 469.556 174.871 469.556 190.354Z" fill="white"/>
<path d="M439 196.841C439 205.359 456.456 212.265 477.988 212.265C499.521 212.265 516.977 205.359 516.977 196.841C516.977 188.322 499.521 181.417 477.988 181.417C456.456 181.417 439 188.322 439 196.841Z" fill="white"/>
<path d="M489.57 198.833C489.57 208.452 522.3 216.25 562.674 216.25C603.048 216.25 635.778 208.452 635.778 198.833C635.778 189.214 603.048 181.417 562.674 181.417C522.3 181.417 489.57 189.214 489.57 198.833Z" fill="white"/>
</g>
<defs>
<filter id="filter0_d_2329_2740" x="-70" y="-102" width="1734.56" height="375" filterUnits="userSpaceOnUse" color-interpolation-filters="sRGB">
<feFlood flood-opacity="0" result="BackgroundImageFix"/>
<feColorMatrix in="SourceAlpha" type="matrix" values="0 0 0 0 0 0 0 0 0 0 0 0 0 0 0 0 0 0 127 0" result="hardAlpha"/>
<feOffset/>
<feGaussianBlur stdDeviation="27"/>
<feComposite in2="hardAlpha" operator="out"/>
<feColorMatrix type="matrix" values="0 0 0 0 0 0 0 0 0 0 0 0 0 0 0 0 0 0 0.15 0"/>
<feBlend mode="normal" in2="BackgroundImageFix" result="effect1_dropShadow_2329_2740"/>
<feBlend mode="normal" in="SourceGraphic" in2="effect1_dropShadow_2329_2740" result="shape"/>
</filter>
</defs>
</svg>
