<svg width="50" height="42" viewBox="0 0 50 42" fill="none" xmlns="http://www.w3.org/2000/svg">
<path d="M4.44018 40C3.62679 39.8495 2 38.9114 2 36.3629V28.2107C2.12578 27.5668 2.89054 26.2792 4.94331 26.2792C5.69801 26.3294 7.28287 26.7859 7.58475 28.2107V38.2191C7.66861 38.8127 8.45014 40 10.9054 40H22.4271C22.9219 39.9164 24.012 39.4431 24.4145 38.2191L25.9993 27.8846C26.0245 27.0066 25.3453 25.3762 22.4271 25.0752H17.0436V19.7825C16.9849 18.7541 16.1631 16.7625 13.3456 17.0233C12.8173 17.0233 12.5305 17.4347 12.6915 19.7825C12.8173 21.0952 12.4198 23.8812 10.2262 25.928M26 16.5588C28.4444 16.0196 33.3333 16.7529 33.3333 24M26 9.44118C30.3575 9.22548 39.4551 11.8353 40.9855 24M26 2C33.3333 1.99998 48 6.39995 48 24" stroke="white" stroke-width="3"/>
</svg>
