<svg width="20" height="21" viewBox="0 0 20 21" fill="none" xmlns="http://www.w3.org/2000/svg">
<path d="M1.69727 14.5203H18.5645C18.9537 14.5203 19.2695 14.8361 19.2695 15.2253V18.8396C19.2695 19.2288 18.9536 19.5446 18.5645 19.5447H1.69727C1.30804 19.5447 0.992233 19.2288 0.992188 18.8396V15.2253C0.992188 14.8361 1.30801 14.5203 1.69727 14.5203ZM1.69727 8.49585H18.5645C18.9536 8.49589 19.2695 8.81174 19.2695 9.20093V11.6111C19.2693 12.0001 18.9535 12.3151 18.5645 12.3152H1.69727C1.30816 12.3152 0.992426 12.0001 0.992188 11.6111V9.20093C0.992236 8.81171 1.30804 8.49585 1.69727 8.49585ZM1.69727 1.26733H18.5645C18.9537 1.26738 19.2695 1.58318 19.2695 1.97241V5.58667C19.2695 5.97586 18.9536 6.2917 18.5645 6.29175H1.69727C1.30804 6.29175 0.992235 5.97589 0.992188 5.58667V1.97241C0.992188 1.58316 1.30801 1.26733 1.69727 1.26733Z" stroke="#555555"/>
</svg>
