<svg width="1440" height="375" viewBox="0 0 1440 375" fill="none" xmlns="http://www.w3.org/2000/svg">
<g opacity="0.5" filter="url(#filter0_d_2279_2236)">
<path d="M86.8215 138.173C89.2136 138.173 91.1528 135.552 91.1528 132.319C91.1528 129.087 89.2136 126.466 86.8215 126.466C84.4293 126.466 82.4901 129.087 82.4901 132.319C82.4901 135.552 84.4293 138.173 86.8215 138.173Z" fill="white"/>
<path d="M11.4324 132.202C11.4324 134.595 13.7647 136.534 16.6417 136.534C19.5187 136.534 21.851 134.595 21.851 132.202C21.851 129.81 19.5187 127.871 16.6417 127.871C13.7647 127.871 11.4324 129.81 11.4324 132.202Z" fill="white"/>
<path d="M33.6745 123.001C33.6745 134.6 45.8194 144.002 60.8009 144.002C75.7824 144.002 87.9273 134.6 87.9273 123.001C87.9273 111.403 75.7824 102 60.8009 102C45.8194 102 33.6745 111.403 33.6745 123.001Z" fill="white"/>
<path d="M37.7718 143.733C37.7718 153.269 51.2939 161 67.9743 161C84.6546 161 98.1767 153.269 98.1767 143.733C98.1767 134.197 84.6546 126.466 67.9743 126.466C51.2939 126.466 37.7718 134.197 37.7718 143.733Z" fill="white"/>
<path d="M15.4127 139.051C15.4127 150.914 26.5239 160.532 40.2302 160.532C53.9365 160.532 65.0477 150.914 65.0477 139.051C65.0477 127.187 53.9365 117.57 40.2302 117.57C26.5239 117.57 15.4127 127.187 15.4127 139.051Z" fill="white"/>
<path d="M-8 144.021C-8 150.548 5.37517 155.839 21.8743 155.839C38.3734 155.839 51.7486 150.548 51.7486 144.021C51.7486 137.494 38.3734 132.202 21.8743 132.202C5.37517 132.202 -8 137.494 -8 144.021Z" fill="white"/>
<path d="M30.7481 145.548C30.7481 152.918 55.8268 158.893 86.763 158.893C117.699 158.893 142.778 152.918 142.778 145.548C142.778 138.177 117.699 132.202 86.763 132.202C55.8268 132.202 30.7481 138.177 30.7481 145.548Z" fill="white"/>
<path d="M1082.09 217.685C1080.59 217.685 1079.38 216.041 1079.38 214.014C1079.38 211.987 1080.59 210.343 1082.09 210.343C1083.59 210.343 1084.81 211.987 1084.81 214.014C1084.81 216.041 1083.59 217.685 1082.09 217.685Z" fill="white"/>
<path d="M1129.37 213.94C1129.37 215.441 1127.91 216.657 1126.1 216.657C1124.3 216.657 1122.84 215.441 1122.84 213.94C1122.84 212.44 1124.3 211.224 1126.1 211.224C1127.91 211.224 1129.37 212.44 1129.37 213.94Z" fill="white"/>
<path d="M1115.42 208.17C1115.42 215.444 1107.8 221.34 1098.41 221.34C1089.01 221.34 1081.4 215.444 1081.4 208.17C1081.4 200.897 1089.01 195 1098.41 195C1107.8 195 1115.42 200.897 1115.42 208.17Z" fill="white"/>
<path d="M1112.85 221.172C1112.85 227.152 1104.37 232 1093.91 232C1083.45 232 1074.97 227.152 1074.97 221.172C1074.97 215.191 1083.45 210.343 1093.91 210.343C1104.37 210.343 1112.85 215.191 1112.85 221.172Z" fill="white"/>
<path d="M1126.87 218.235C1126.87 225.675 1119.9 231.706 1111.31 231.706C1102.71 231.706 1095.75 225.675 1095.75 218.235C1095.75 210.795 1102.71 204.764 1111.31 204.764C1119.9 204.764 1126.87 210.795 1126.87 218.235Z" fill="white"/>
<path d="M1141.56 221.352C1141.56 225.445 1133.17 228.764 1122.82 228.764C1112.47 228.764 1104.09 225.445 1104.09 221.352C1104.09 217.259 1112.47 213.94 1122.82 213.94C1133.17 213.94 1141.56 217.259 1141.56 221.352Z" fill="white"/>
<path d="M1117.26 222.31C1117.26 226.932 1101.53 230.679 1082.13 230.679C1062.73 230.679 1047 226.932 1047 222.31C1047 217.687 1062.73 213.94 1082.13 213.94C1101.53 213.94 1117.26 217.687 1117.26 222.31Z" fill="white"/>
<path d="M314.091 221.685C312.591 221.685 311.375 220.041 311.375 218.014C311.375 215.987 312.591 214.343 314.091 214.343C315.591 214.343 316.808 215.987 316.808 218.014C316.808 220.041 315.591 221.685 314.091 221.685Z" fill="white"/>
<path d="M361.369 217.94C361.369 219.441 359.907 220.657 358.102 220.657C356.298 220.657 354.835 219.441 354.835 217.94C354.835 216.44 356.298 215.224 358.102 215.224C359.907 215.224 361.369 216.44 361.369 217.94Z" fill="white"/>
<path d="M347.421 212.17C347.421 219.444 339.804 225.34 330.409 225.34C321.014 225.34 313.398 219.444 313.398 212.17C313.398 204.897 321.014 199 330.409 199C339.804 199 347.421 204.897 347.421 212.17Z" fill="white"/>
<path d="M344.851 225.172C344.851 231.152 336.371 236 325.911 236C315.45 236 306.97 231.152 306.97 225.172C306.97 219.191 315.45 214.343 325.911 214.343C336.371 214.343 344.851 219.191 344.851 225.172Z" fill="white"/>
<path d="M358.873 222.235C358.873 229.675 351.905 235.706 343.309 235.706C334.714 235.706 327.746 229.675 327.746 222.235C327.746 214.795 334.714 208.764 343.309 208.764C351.905 208.764 358.873 214.795 358.873 222.235Z" fill="white"/>
<path d="M373.556 225.352C373.556 229.445 365.168 232.764 354.821 232.764C344.474 232.764 336.086 229.445 336.086 225.352C336.086 221.259 344.474 217.94 354.821 217.94C365.168 217.94 373.556 221.259 373.556 225.352Z" fill="white"/>
<path d="M349.256 226.31C349.256 230.932 333.528 234.679 314.128 234.679C294.727 234.679 279 230.932 279 226.31C279 221.687 294.727 217.94 314.128 217.94C333.528 217.94 349.256 221.687 349.256 226.31Z" fill="white"/>
<path d="M1388.09 76.6845C1386.59 76.6845 1385.38 75.0411 1385.38 73.0139C1385.38 70.9867 1386.59 69.3433 1388.09 69.3433C1389.59 69.3433 1390.81 70.9867 1390.81 73.0139C1390.81 75.0411 1389.59 76.6845 1388.09 76.6845Z" fill="white"/>
<path d="M1435.37 72.9405C1435.37 74.4406 1433.91 75.6568 1432.1 75.6568C1430.3 75.6568 1428.84 74.4406 1428.84 72.9405C1428.84 71.4403 1430.3 70.2242 1432.1 70.2242C1433.91 70.2242 1435.37 71.4403 1435.37 72.9405Z" fill="white"/>
<path d="M1421.42 67.1702C1421.42 74.444 1413.8 80.3405 1404.41 80.3405C1395.01 80.3405 1387.4 74.444 1387.4 67.1702C1387.4 59.8965 1395.01 54 1404.41 54C1413.8 54 1421.42 59.8965 1421.42 67.1702Z" fill="white"/>
<path d="M1418.85 80.1716C1418.85 86.152 1410.37 91 1399.91 91C1389.45 91 1380.97 86.152 1380.97 80.1716C1380.97 74.1913 1389.45 69.3433 1399.91 69.3433C1410.37 69.3433 1418.85 74.1913 1418.85 80.1716Z" fill="white"/>
<path d="M1432.87 77.2352C1432.87 84.6751 1425.9 90.7064 1417.31 90.7064C1408.71 90.7064 1401.75 84.6751 1401.75 77.2352C1401.75 69.7952 1408.71 63.764 1417.31 63.764C1425.9 63.764 1432.87 69.7952 1432.87 77.2352Z" fill="white"/>
<path d="M1447.56 80.352C1447.56 84.4454 1439.17 87.7636 1428.82 87.7636C1418.47 87.7636 1410.09 84.4454 1410.09 80.352C1410.09 76.2587 1418.47 72.9405 1428.82 72.9405C1439.17 72.9405 1447.56 76.2587 1447.56 80.352Z" fill="white"/>
<path d="M1423.26 81.3095C1423.26 85.9316 1407.53 89.6786 1388.13 89.6786C1368.73 89.6786 1353 85.9316 1353 81.3095C1353 76.6874 1368.73 72.9405 1388.13 72.9405C1407.53 72.9405 1423.26 76.6874 1423.26 81.3095Z" fill="white"/>
<path d="M1229.03 137.208C1225.91 137.208 1223.38 133.788 1223.38 129.569C1223.38 125.351 1225.91 121.931 1229.03 121.931C1232.15 121.931 1234.68 125.351 1234.68 129.569C1234.68 133.788 1232.15 137.208 1229.03 137.208Z" fill="white"/>
<path d="M1327.42 129.416C1327.42 132.538 1324.37 135.069 1320.62 135.069C1316.86 135.069 1313.82 132.538 1313.82 129.416C1313.82 126.295 1316.86 123.764 1320.62 123.764C1324.37 123.764 1327.42 126.295 1327.42 129.416Z" fill="white"/>
<path d="M1298.39 117.408C1298.39 132.546 1282.54 144.817 1262.99 144.817C1243.43 144.817 1227.58 132.546 1227.58 117.408C1227.58 102.271 1243.43 90 1262.99 90C1282.54 90 1298.39 102.271 1298.39 117.408Z" fill="white"/>
<path d="M1293.04 144.465C1293.04 156.911 1275.39 167 1253.62 167C1231.86 167 1214.21 156.911 1214.21 144.465C1214.21 132.02 1231.86 121.931 1253.62 121.931C1275.39 121.931 1293.04 132.02 1293.04 144.465Z" fill="white"/>
<path d="M1322.22 138.354C1322.22 153.837 1307.72 166.389 1289.83 166.389C1271.95 166.389 1257.44 153.837 1257.44 138.354C1257.44 122.871 1271.95 110.319 1289.83 110.319C1307.72 110.319 1322.22 122.871 1322.22 138.354Z" fill="white"/>
<path d="M1352.78 144.841C1352.78 153.359 1335.32 160.265 1313.79 160.265C1292.26 160.265 1274.8 153.359 1274.8 144.841C1274.8 136.322 1292.26 129.417 1313.79 129.417C1335.32 129.417 1352.78 136.322 1352.78 144.841Z" fill="white"/>
<path d="M1302.21 146.833C1302.21 156.452 1269.48 164.25 1229.1 164.25C1188.73 164.25 1156 156.452 1156 146.833C1156 137.214 1188.73 129.417 1229.1 129.417C1269.48 129.417 1302.21 137.214 1302.21 146.833Z" fill="white"/>
<path d="M570.75 291.208C573.872 291.208 576.403 287.788 576.403 283.569C576.403 279.351 573.872 275.931 570.75 275.931C567.628 275.931 565.097 279.351 565.097 283.569C565.097 287.788 567.628 291.208 570.75 291.208Z" fill="white"/>
<path d="M472.361 283.416C472.361 286.538 475.405 289.069 479.16 289.069C482.915 289.069 485.958 286.538 485.958 283.416C485.958 280.295 482.915 277.764 479.16 277.764C475.405 277.764 472.361 280.295 472.361 283.416Z" fill="white"/>
<path d="M501.389 271.408C501.389 286.546 517.239 298.817 536.791 298.817C556.343 298.817 572.193 286.546 572.193 271.408C572.193 256.271 556.343 244 536.791 244C517.239 244 501.389 256.271 501.389 271.408Z" fill="white"/>
<path d="M506.737 298.465C506.737 310.911 524.384 321 546.153 321C567.922 321 585.57 310.911 585.57 298.465C585.57 286.02 567.922 275.931 546.153 275.931C524.384 275.931 506.737 286.02 506.737 298.465Z" fill="white"/>
<path d="M477.556 292.354C477.556 307.837 492.057 320.389 509.945 320.389C527.833 320.389 542.334 307.837 542.334 292.354C542.334 276.871 527.833 264.32 509.945 264.32C492.057 264.32 477.556 276.871 477.556 292.354Z" fill="white"/>
<path d="M447 298.841C447 307.359 464.456 314.265 485.988 314.265C507.521 314.265 524.977 307.359 524.977 298.841C524.977 290.322 507.521 283.417 485.988 283.417C464.456 283.417 447 290.322 447 298.841Z" fill="white"/>
<path d="M497.57 300.833C497.57 310.452 530.3 318.25 570.674 318.25C611.048 318.25 643.778 310.452 643.778 300.833C643.778 291.214 611.048 283.417 570.674 283.417C530.3 283.417 497.57 291.214 497.57 300.833Z" fill="white"/>
</g>
<defs>
<filter id="filter0_d_2279_2236" x="-62" y="0" width="1563.55" height="375" filterUnits="userSpaceOnUse" color-interpolation-filters="sRGB">
<feFlood flood-opacity="0" result="BackgroundImageFix"/>
<feColorMatrix in="SourceAlpha" type="matrix" values="0 0 0 0 0 0 0 0 0 0 0 0 0 0 0 0 0 0 127 0" result="hardAlpha"/>
<feOffset/>
<feGaussianBlur stdDeviation="27"/>
<feComposite in2="hardAlpha" operator="out"/>
<feColorMatrix type="matrix" values="0 0 0 0 0 0 0 0 0 0 0 0 0 0 0 0 0 0 0.03 0"/>
<feBlend mode="normal" in2="BackgroundImageFix" result="effect1_dropShadow_2279_2236"/>
<feBlend mode="normal" in="SourceGraphic" in2="effect1_dropShadow_2279_2236" result="shape"/>
</filter>
</defs>
</svg>
