<svg width="1440" height="449" viewBox="0 0 1440 449" fill="none" xmlns="http://www.w3.org/2000/svg">
<g opacity="0.5" filter="url(#filter0_d_2229_2237)">
<path d="M3.10365 161.501C6.15884 161.501 8.63555 158.154 8.63555 154.026C8.63555 149.897 6.15884 146.551 3.10365 146.551C0.0484695 146.551 -2.42825 149.897 -2.42825 154.026C-2.42825 158.154 0.0484695 161.501 3.10365 161.501Z" fill="white"/>
<path d="M-93.1815 153.877C-93.1815 156.932 -90.2027 159.408 -86.5282 159.408C-82.8538 159.408 -79.875 156.932 -79.875 153.877C-79.875 150.821 -82.8538 148.345 -86.5282 148.345C-90.2027 148.345 -93.1815 150.821 -93.1815 153.877Z" fill="white"/>
<path d="M-64.7744 142.125C-64.7744 156.938 -49.2632 168.947 -30.1292 168.947C-10.9952 168.947 4.51602 156.938 4.51602 142.125C4.51602 127.312 -10.9952 115.303 -30.1292 115.303C-49.2632 115.303 -64.7744 127.312 -64.7744 142.125Z" fill="white"/>
<path d="M-59.5413 168.603C-59.5413 180.782 -42.2713 190.655 -20.9675 190.655C0.336166 190.655 17.6062 180.782 17.6062 168.603C17.6062 156.424 0.336166 146.551 -20.9675 146.551C-42.2713 146.551 -59.5413 156.424 -59.5413 168.603Z" fill="white"/>
<path d="M-88.0978 162.623C-88.0978 177.775 -73.9069 190.058 -56.4016 190.058C-38.8962 190.058 -24.7053 177.775 -24.7053 162.623C-24.7053 147.471 -38.8962 135.188 -56.4016 135.188C-73.9069 135.188 -88.0978 147.471 -88.0978 162.623Z" fill="white"/>
<path d="M-118 168.97C-118 177.307 -100.918 184.065 -79.8453 184.065C-58.773 184.065 -41.6906 177.307 -41.6906 168.97C-41.6906 160.634 -58.773 153.876 -79.8453 153.876C-100.918 153.876 -118 160.634 -118 168.97Z" fill="white"/>
<path d="M-68.5119 170.92C-68.5119 180.333 -36.482 187.964 3.02898 187.964C42.5399 187.964 74.5699 180.333 74.5699 170.92C74.5699 161.507 42.5399 153.876 3.02898 153.876C-36.482 153.876 -68.5119 161.507 -68.5119 170.92Z" fill="white"/>
<path d="M1274.24 263.05C1272.32 263.05 1270.77 260.951 1270.77 258.362C1270.77 255.773 1272.32 253.674 1274.24 253.674C1276.15 253.674 1277.71 255.773 1277.71 258.362C1277.71 260.951 1276.15 263.05 1274.24 263.05Z" fill="white"/>
<path d="M1334.62 258.269C1334.62 260.185 1332.75 261.738 1330.45 261.738C1328.14 261.738 1326.28 260.185 1326.28 258.269C1326.28 256.353 1328.14 254.799 1330.45 254.799C1332.75 254.799 1334.62 256.353 1334.62 258.269Z" fill="white"/>
<path d="M1316.81 250.899C1316.81 260.189 1307.08 267.719 1295.08 267.719C1283.08 267.719 1273.35 260.189 1273.35 250.899C1273.35 241.609 1283.08 234.079 1295.08 234.079C1307.08 234.079 1316.81 241.609 1316.81 250.899Z" fill="white"/>
<path d="M1313.52 267.504C1313.52 275.142 1302.69 281.333 1289.33 281.333C1275.97 281.333 1265.14 275.142 1265.14 267.504C1265.14 259.866 1275.97 253.674 1289.33 253.674C1302.69 253.674 1313.52 259.866 1313.52 267.504Z" fill="white"/>
<path d="M1331.43 263.754C1331.43 273.256 1322.53 280.958 1311.55 280.958C1300.58 280.958 1291.68 273.256 1291.68 263.754C1291.68 254.252 1300.58 246.549 1311.55 246.549C1322.53 246.549 1331.43 254.252 1331.43 263.754Z" fill="white"/>
<path d="M1350.18 267.734C1350.18 272.962 1339.47 277.2 1326.26 277.2C1313.04 277.2 1302.33 272.962 1302.33 267.734C1302.33 262.506 1313.04 258.269 1326.26 258.269C1339.47 258.269 1350.18 262.506 1350.18 267.734Z" fill="white"/>
<path d="M1319.15 268.957C1319.15 274.86 1299.06 279.646 1274.28 279.646C1249.51 279.646 1229.42 274.86 1229.42 268.957C1229.42 263.054 1249.51 258.269 1274.28 258.269C1299.06 258.269 1319.15 263.054 1319.15 268.957Z" fill="white"/>
<path d="M293.367 268.159C291.451 268.159 289.898 266.06 289.898 263.471C289.898 260.882 291.451 258.783 293.367 258.783C295.283 258.783 296.836 260.882 296.836 263.471C296.836 266.06 295.283 268.159 293.367 268.159Z" fill="white"/>
<path d="M353.749 263.377C353.749 265.293 351.881 266.846 349.577 266.846C347.273 266.846 345.405 265.293 345.405 263.377C345.405 261.461 347.273 259.908 349.577 259.908C351.881 259.908 353.749 261.461 353.749 263.377Z" fill="white"/>
<path d="M335.934 256.008C335.934 265.297 326.207 272.828 314.208 272.828C302.208 272.828 292.481 265.297 292.481 256.008C292.481 246.718 302.208 239.187 314.208 239.187C326.207 239.187 335.934 246.718 335.934 256.008Z" fill="white"/>
<path d="M332.653 272.612C332.653 280.25 321.823 286.442 308.463 286.442C295.103 286.442 284.272 280.25 284.272 272.612C284.272 264.975 295.103 258.783 308.463 258.783C321.823 258.783 332.653 264.975 332.653 272.612Z" fill="white"/>
<path d="M350.561 268.862C350.561 278.364 341.662 286.067 330.684 286.067C319.706 286.067 310.807 278.364 310.807 268.862C310.807 259.36 319.706 251.657 330.684 251.657C341.662 251.657 350.561 259.36 350.561 268.862Z" fill="white"/>
<path d="M369.313 272.843C369.313 278.071 358.601 282.309 345.386 282.309C332.171 282.309 321.458 278.071 321.458 272.843C321.458 267.615 332.171 263.377 345.386 263.377C358.601 263.377 369.313 267.615 369.313 272.843Z" fill="white"/>
<path d="M338.278 274.066C338.278 279.969 318.192 284.754 293.414 284.754C268.636 284.754 248.549 279.969 248.549 274.066C248.549 268.163 268.636 263.377 293.414 263.377C318.192 263.377 338.278 268.163 338.278 274.066Z" fill="white"/>
<path d="M1665.05 82.9716C1663.14 82.9716 1661.58 80.8728 1661.58 78.2837C1661.58 75.6946 1663.14 73.5957 1665.05 73.5957C1666.97 73.5957 1668.52 75.6946 1668.52 78.2837C1668.52 80.8728 1666.97 82.9716 1665.05 82.9716Z" fill="white"/>
<path d="M1725.44 78.1899C1725.44 80.1058 1723.57 81.659 1721.26 81.659C1718.96 81.659 1717.09 80.1058 1717.09 78.1899C1717.09 76.274 1718.96 74.7208 1721.26 74.7208C1723.57 74.7208 1725.44 76.274 1725.44 78.1899Z" fill="white"/>
<path d="M1707.62 70.8204C1707.62 80.1101 1697.89 87.6408 1685.89 87.6408C1673.89 87.6408 1664.17 80.1101 1664.17 70.8204C1664.17 61.5308 1673.89 54 1685.89 54C1697.89 54 1707.62 61.5308 1707.62 70.8204Z" fill="white"/>
<path d="M1704.34 87.4252C1704.34 95.063 1693.51 101.255 1680.15 101.255C1666.79 101.255 1655.96 95.063 1655.96 87.4252C1655.96 79.7874 1666.79 73.5957 1680.15 73.5957C1693.51 73.5957 1704.34 79.7874 1704.34 87.4252Z" fill="white"/>
<path d="M1722.25 83.6749C1722.25 93.1769 1713.35 100.88 1702.37 100.88C1691.39 100.88 1682.49 93.1769 1682.49 83.6749C1682.49 74.1729 1691.39 66.4701 1702.37 66.4701C1713.35 66.4701 1722.25 74.1729 1722.25 83.6749Z" fill="white"/>
<path d="M1741 87.6556C1741 92.8834 1730.29 97.1214 1717.07 97.1214C1703.86 97.1214 1693.14 92.8834 1693.14 87.6556C1693.14 82.4278 1703.86 78.1899 1717.07 78.1899C1730.29 78.1899 1741 82.4278 1741 87.6556Z" fill="white"/>
<path d="M1709.96 88.8784C1709.96 94.7816 1689.88 99.567 1665.1 99.567C1640.32 99.567 1620.24 94.7816 1620.24 88.8784C1620.24 82.9753 1640.32 78.1899 1665.1 78.1899C1689.88 78.1899 1709.96 82.9753 1709.96 88.8784Z" fill="white"/>
<path d="M1461.9 160.27C1457.91 160.27 1454.68 155.902 1454.68 150.514C1454.68 145.126 1457.91 140.758 1461.9 140.758C1465.89 140.758 1469.12 145.126 1469.12 150.514C1469.12 155.902 1465.89 160.27 1461.9 160.27Z" fill="white"/>
<path d="M1587.56 150.318C1587.56 154.306 1583.67 157.538 1578.88 157.538C1574.08 157.538 1570.2 154.306 1570.2 150.318C1570.2 146.331 1574.08 143.099 1578.88 143.099C1583.67 143.099 1587.56 146.331 1587.56 150.318Z" fill="white"/>
<path d="M1550.49 134.982C1550.49 154.315 1530.24 169.987 1505.27 169.987C1480.3 169.987 1460.06 154.315 1460.06 134.982C1460.06 115.65 1480.3 99.9775 1505.27 99.9775C1530.24 99.9775 1550.49 115.65 1550.49 134.982Z" fill="white"/>
<path d="M1543.66 169.538C1543.66 185.433 1521.12 198.318 1493.32 198.318C1465.51 198.318 1442.97 185.433 1442.97 169.538C1442.97 153.643 1465.51 140.758 1493.32 140.758C1521.12 140.758 1543.66 153.643 1543.66 169.538Z" fill="white"/>
<path d="M1580.93 161.733C1580.93 181.508 1562.41 197.538 1539.56 197.538C1516.71 197.538 1498.19 181.508 1498.19 161.733C1498.19 141.959 1516.71 125.929 1539.56 125.929C1562.41 125.929 1580.93 141.959 1580.93 161.733Z" fill="white"/>
<path d="M1619.95 170.018C1619.95 180.897 1597.66 189.716 1570.16 189.716C1542.66 189.716 1520.36 180.897 1520.36 170.018C1520.36 159.138 1542.66 150.319 1570.16 150.319C1597.66 150.319 1619.95 159.138 1619.95 170.018Z" fill="white"/>
<path d="M1555.37 172.562C1555.37 184.847 1513.56 194.806 1462 194.806C1410.43 194.806 1368.63 184.847 1368.63 172.562C1368.63 160.277 1410.43 150.319 1462 150.319C1513.56 150.319 1555.37 160.277 1555.37 172.562Z" fill="white"/>
<path d="M621.166 356.952C625.153 356.952 628.385 352.584 628.385 347.195C628.385 341.807 625.153 337.439 621.166 337.439C617.178 337.439 613.946 341.807 613.946 347.195C613.946 352.584 617.178 356.952 621.166 356.952Z" fill="white"/>
<path d="M495.506 347C495.506 350.987 499.393 354.22 504.189 354.22C508.984 354.22 512.872 350.987 512.872 347C512.872 343.013 508.984 339.781 504.189 339.781C499.393 339.781 495.506 343.013 495.506 347Z" fill="white"/>
<path d="M532.579 331.664C532.579 350.996 552.822 366.668 577.794 366.668C602.765 366.668 623.009 350.996 623.009 331.664C623.009 312.331 602.765 296.659 577.794 296.659C552.822 296.659 532.579 312.331 532.579 331.664Z" fill="white"/>
<path d="M539.409 366.22C539.409 382.115 561.948 395 589.751 395C617.554 395 640.093 382.115 640.093 366.22C640.093 350.325 617.554 337.439 589.751 337.439C561.948 337.439 539.409 350.325 539.409 366.22Z" fill="white"/>
<path d="M502.14 358.415C502.14 378.189 520.66 394.22 543.506 394.22C566.352 394.22 584.872 378.189 584.872 358.415C584.872 338.641 566.352 322.61 543.506 322.61C520.66 322.61 502.14 338.641 502.14 358.415Z" fill="white"/>
<path d="M463.115 366.699C463.115 377.579 485.409 386.398 512.91 386.398C540.411 386.398 562.705 377.579 562.705 366.699C562.705 355.82 540.411 347 512.91 347C485.409 347 463.115 355.82 463.115 366.699Z" fill="white"/>
<path d="M527.701 369.244C527.701 381.529 569.503 391.488 621.068 391.488C672.633 391.488 714.435 381.529 714.435 369.244C714.435 356.959 672.633 347 621.068 347C569.503 347 527.701 356.959 527.701 369.244Z" fill="white"/>
</g>
<defs>
<filter id="filter0_d_2229_2237" x="-172" y="0" width="1967" height="449" filterUnits="userSpaceOnUse" color-interpolation-filters="sRGB">
<feFlood flood-opacity="0" result="BackgroundImageFix"/>
<feColorMatrix in="SourceAlpha" type="matrix" values="0 0 0 0 0 0 0 0 0 0 0 0 0 0 0 0 0 0 127 0" result="hardAlpha"/>
<feOffset/>
<feGaussianBlur stdDeviation="27"/>
<feComposite in2="hardAlpha" operator="out"/>
<feColorMatrix type="matrix" values="0 0 0 0 0 0 0 0 0 0 0 0 0 0 0 0 0 0 0.03 0"/>
<feBlend mode="normal" in2="BackgroundImageFix" result="effect1_dropShadow_2229_2237"/>
<feBlend mode="normal" in="SourceGraphic" in2="effect1_dropShadow_2229_2237" result="shape"/>
</filter>
</defs>
</svg>
