<svg width="20" height="21" viewBox="0 0 20 21" fill="none" xmlns="http://www.w3.org/2000/svg">
<path d="M1.26172 14.5203H18.1289C18.5181 14.5203 18.834 14.8361 18.834 15.2253V18.8396C18.8339 19.2288 18.5181 19.5446 18.1289 19.5447H1.26172C0.87249 19.5447 0.556686 19.2288 0.556641 18.8396V15.2253C0.556641 14.8361 0.872462 14.5203 1.26172 14.5203ZM1.26172 8.49585H18.1289C18.5181 8.49589 18.8339 8.81174 18.834 9.20093V11.6111C18.8337 12.0001 18.518 12.3151 18.1289 12.3152H1.26172C0.872609 12.3152 0.556879 12.0001 0.556641 11.6111V9.20093C0.55669 8.81171 0.872492 8.49585 1.26172 8.49585ZM1.26172 1.26733H18.1289C18.5181 1.26738 18.834 1.58318 18.834 1.97241V5.58667C18.8339 5.97586 18.5181 6.2917 18.1289 6.29175H1.26172C0.872491 6.29175 0.556688 5.97589 0.556641 5.58667V1.97241C0.556641 1.58316 0.872462 1.26733 1.26172 1.26733Z" stroke="#555555"/>
</svg>
